<svg width="16" height="16" viewBox="0 0 16 16" fill="none" xmlns="http://www.w3.org/2000/svg">
<path fill-rule="evenodd" clip-rule="evenodd" d="M10.5 2.16667C10.0398 2.16667 9.66667 1.79357 9.66667 1.33333C9.66667 0.873096 10.0398 0.5 10.5 0.5H14.6667C15.1269 0.5 15.5 0.873096 15.5 1.33333V5.5C15.5 5.96024 15.1269 6.33333 14.6667 6.33333C14.2064 6.33333 13.8333 5.96024 13.8333 5.5V3.34518L6.92259 10.2559C6.59715 10.5814 6.06951 10.5814 5.74408 10.2559C5.41864 9.93049 5.41864 9.40285 5.74408 9.07741L12.6548 2.16667H10.5ZM1.23223 3.73223C1.70107 3.26339 2.33696 3 3 3H7.16667C7.6269 3 8 3.3731 8 3.83333C8 4.29357 7.6269 4.66667 7.16667 4.66667H3C2.77899 4.66667 2.56702 4.75446 2.41074 4.91074C2.25446 5.06702 2.16667 5.27899 2.16667 5.5V13C2.16667 13.221 2.25446 13.433 2.41074 13.5893C2.56702 13.7455 2.77899 13.8333 3 13.8333H10.5C10.721 13.8333 10.933 13.7455 11.0893 13.5893C11.2455 13.433 11.3333 13.221 11.3333 13V8.83333C11.3333 8.3731 11.7064 8 12.1667 8C12.6269 8 13 8.3731 13 8.83333V13C13 13.663 12.7366 14.2989 12.2678 14.7678C11.7989 15.2366 11.163 15.5 10.5 15.5H3C2.33696 15.5 1.70107 15.2366 1.23223 14.7678C0.763392 14.2989 0.5 13.663 0.5 13V5.5C0.5 4.83696 0.763392 4.20107 1.23223 3.73223Z" fill="#2F80ED"/>
</svg>
