<svg width="12" height="14" viewBox="0 0 12 14" fill="none" xmlns="http://www.w3.org/2000/svg">
<path fill-rule="evenodd" clip-rule="evenodd" d="M3.72386 0.72402C3.97391 0.473972 4.31304 0.333496 4.66667 0.333496H7.33333C7.68696 0.333496 8.02609 0.473972 8.27614 0.72402C8.52619 0.974069 8.66667 1.31321 8.66667 1.66683V3.00016H10.6589C10.6636 3.00011 10.6683 3.00011 10.673 3.00016H11.3333C11.7015 3.00016 12 3.29864 12 3.66683C12 4.03502 11.7015 4.3335 11.3333 4.3335H11.2801L10.6664 11.6974C10.6585 12.2167 10.4488 12.7132 10.0809 13.081C9.70581 13.4561 9.1971 13.6668 8.66667 13.6668H3.33333C2.8029 13.6668 2.29419 13.4561 1.91912 13.081C1.55125 12.7132 1.34148 12.2167 1.33357 11.6974L0.719911 4.3335H0.666667C0.298477 4.3335 0 4.03502 0 3.66683C0 3.29864 0.298477 3.00016 0.666667 3.00016H1.32702C1.33174 3.00011 1.33644 3.00011 1.34113 3.00016H3.33333V1.66683C3.33333 1.31321 3.47381 0.974069 3.72386 0.72402ZM2.05787 4.3335L2.66436 11.6115C2.6659 11.6299 2.66667 11.6484 2.66667 11.6668C2.66667 11.8436 2.7369 12.0132 2.86193 12.1382C2.98695 12.2633 3.15652 12.3335 3.33333 12.3335H8.66667C8.84348 12.3335 9.01305 12.2633 9.13807 12.1382C9.2631 12.0132 9.33333 11.8436 9.33333 11.6668C9.33333 11.6484 9.3341 11.6299 9.33564 11.6115L9.94213 4.3335H2.05787ZM7.33333 3.00016H4.66667V1.66683H7.33333V3.00016ZM4.66667 5.66683C5.03486 5.66683 5.33333 5.96531 5.33333 6.3335V10.3335C5.33333 10.7017 5.03486 11.0002 4.66667 11.0002C4.29848 11.0002 4 10.7017 4 10.3335V6.3335C4 5.96531 4.29848 5.66683 4.66667 5.66683ZM7.33333 5.66683C7.70152 5.66683 8 5.96531 8 6.3335V10.3335C8 10.7017 7.70152 11.0002 7.33333 11.0002C6.96514 11.0002 6.66667 10.7017 6.66667 10.3335V6.3335C6.66667 5.96531 6.96514 5.66683 7.33333 5.66683Z" fill="#ADB5BD"/>
</svg>
