<svg width="76" height="71" viewBox="0 0 76 71" fill="none" xmlns="http://www.w3.org/2000/svg">
<path d="M50.9787 2.48463L39.1693 9.30278L35.7603 3.39809L26.4465 0.90247L14.6371 7.72062L12.1415 17.0344L15.5506 22.9391L3.74116 29.7572C0.493578 31.6322 -0.62945 35.8234 1.24554 39.071L9.76824 53.8328C11.0466 56.047 13.3014 57.2252 15.6694 57.2358L21.2433 66.89C23.1353 70.1671 27.2799 71.2776 30.557 69.3856L71.8899 45.522C75.167 43.63 76.2776 39.4854 74.3855 36.2083L68.7946 26.5246C69.9399 24.4856 70.0595 21.8972 68.8152 19.742L60.2925 4.98024C58.4175 1.73266 54.2263 0.609634 50.9787 2.48463ZM18.0462 13.6253L29.8556 6.80716L33.2646 12.7119L21.4552 19.53L18.0462 13.6253ZM7.15024 35.6619L54.3878 8.38932L62.9105 23.1511L48.1488 31.6738L43.0351 22.8167L25.3211 33.0439L30.4347 41.901L15.6729 50.4237L7.15024 35.6619ZM43.9486 38.0352L38.0439 41.4443L34.6348 35.5396L40.5395 32.1305L43.9486 38.0352ZM68.4808 39.6173L27.148 63.4809L22.0344 54.6238L33.8437 47.8057L35.5483 50.758L53.2624 40.5308L51.5578 37.5784L63.3672 30.7603L68.4808 39.6173Z" fill="white" fill-opacity="0.5"/>
</svg>
