<svg width="67" height="73" viewBox="0 0 67 73" fill="none" xmlns="http://www.w3.org/2000/svg">
<path d="M53.6592 72.0817L47.5229 61.4532C32.2884 69.2254 13.4177 63.7447 4.77568 48.7763C-4.1561 33.306 1.15957 13.4677 16.6299 4.53589C32.1002 -4.3959 51.9385 0.919769 60.8703 16.3901C69.3078 31.0042 67.6403 51.5705 56.705 67.6071L53.6592 72.0817ZM20.0389 10.4406C7.81623 17.4974 3.62359 33.1445 10.6804 45.3672C17.7372 57.5899 33.3843 61.7826 45.607 54.7258L50.0356 52.169L53.956 58.9594C60.7821 45.9645 61.3065 30.7819 54.9656 19.7991C47.9088 7.57643 32.2617 3.38379 20.0389 10.4406ZM36.6888 46.0971L42.5935 42.688L46.0026 48.5927L40.0979 52.0018L36.6888 46.0971ZM40.0367 38.2595L34.132 41.6686C28.5922 32.0735 37.8754 27.6979 34.4663 21.7932C32.5913 18.5457 28.4001 17.4226 25.1526 19.2976C21.905 21.1726 20.782 25.3638 22.6569 28.6114L16.7522 32.0205C12.9852 25.4958 15.2188 17.16 21.7435 13.3929C28.2682 9.6259 36.604 11.8595 40.371 18.3842C44.6324 25.765 36.2015 31.6167 40.0367 38.2595Z" fill="white" fill-opacity="0.5"/>
</svg>
