<svg width="34" height="32" viewBox="0 0 34 32" fill="none" xmlns="http://www.w3.org/2000/svg">
<path fill-rule="evenodd" clip-rule="evenodd" d="M6.99992 1.66667C6.99992 0.746192 7.74611 0 8.66659 0H25.3333C26.2537 0 26.9999 0.746192 26.9999 1.66667V5.28451C27.5212 5.10026 28.0822 5 28.6666 5C31.428 5 33.6666 7.23858 33.6666 10C33.6666 12.7614 31.428 15 28.6666 15C28.0822 15 27.5212 14.8997 26.9999 14.7155V15C26.9999 17.6522 25.9464 20.1957 24.071 22.0711C22.5932 23.5489 20.7004 24.5164 18.6666 24.8602V28.3333H23.6666C24.5871 28.3333 25.3333 29.0795 25.3333 30C25.3333 30.9205 24.5871 31.6667 23.6666 31.6667H10.3333C9.41278 31.6667 8.66659 30.9205 8.66659 30C8.66659 29.0795 9.41278 28.3333 10.3333 28.3333H15.3333V24.8602C13.2994 24.5164 11.4067 23.5489 9.92885 22.0711C8.05349 20.1957 6.99992 17.6522 6.99992 15V14.7155C6.47862 14.8997 5.91764 15 5.33325 15C2.57183 15 0.333252 12.7614 0.333252 10C0.333252 7.23858 2.57183 5 5.33325 5C5.91764 5 6.47862 5.10026 6.99992 5.28451V1.66667ZM10.3333 15C10.3333 16.7681 11.0356 18.4638 12.2859 19.714C13.5361 20.9643 15.2318 21.6667 16.9999 21.6667C18.768 21.6667 20.4637 20.9643 21.714 19.714C22.9642 18.4638 23.6666 16.7681 23.6666 15V3.33333H10.3333V15ZM6.99992 10C6.99992 9.07953 6.25373 8.33333 5.33325 8.33333C4.41278 8.33333 3.66659 9.07953 3.66659 10C3.66659 10.9205 4.41278 11.6667 5.33325 11.6667C6.25373 11.6667 6.99992 10.9205 6.99992 10ZM26.9999 10C26.9999 10.9205 27.7461 11.6667 28.6666 11.6667C29.5871 11.6667 30.3333 10.9205 30.3333 10C30.3333 9.07953 29.5871 8.33333 28.6666 8.33333C27.7461 8.33333 26.9999 9.07953 26.9999 10Z" fill="#828282"/>
</svg>
