<svg width="14" height="14" viewBox="0 0 14 14" fill="none" xmlns="http://www.w3.org/2000/svg">
<path fill-rule="evenodd" clip-rule="evenodd" d="M6.99998 1.66683C4.05446 1.66683 1.66665 4.05464 1.66665 7.00016C1.66665 9.94568 4.05446 12.3335 6.99998 12.3335C9.9455 12.3335 12.3333 9.94568 12.3333 7.00016C12.3333 4.05464 9.9455 1.66683 6.99998 1.66683ZM0.333313 7.00016C0.333313 3.31826 3.31808 0.333496 6.99998 0.333496C10.6819 0.333496 13.6666 3.31826 13.6666 7.00016C13.6666 10.6821 10.6819 13.6668 6.99998 13.6668C3.31808 13.6668 0.333313 10.6821 0.333313 7.00016ZM6.33331 4.3335C6.33331 3.96531 6.63179 3.66683 6.99998 3.66683H7.00665C7.37484 3.66683 7.67331 3.96531 7.67331 4.3335C7.67331 4.70169 7.37484 5.00016 7.00665 5.00016H6.99998C6.63179 5.00016 6.33331 4.70169 6.33331 4.3335ZM5.66665 7.00016C5.66665 6.63197 5.96512 6.3335 6.33331 6.3335H6.99998C7.36817 6.3335 7.66665 6.63197 7.66665 7.00016V9.00016C8.03484 9.00016 8.33331 9.29864 8.33331 9.66683C8.33331 10.035 8.03484 10.3335 7.66665 10.3335H6.99998C6.63179 10.3335 6.33331 10.035 6.33331 9.66683V7.66683C5.96512 7.66683 5.66665 7.36835 5.66665 7.00016Z" fill="#FD7E14"/>
</svg>
