<svg width="16" height="16" viewBox="0 0 16 16" fill="none" xmlns="http://www.w3.org/2000/svg">
<path fill-rule="evenodd" clip-rule="evenodd" d="M3.83333 1.99998C3.39131 1.99998 2.96738 2.17557 2.65482 2.48814C2.34226 2.8007 2.16667 3.22462 2.16667 3.66665V12.4881L4.07741 10.5774C4.23369 10.4211 4.44565 10.3333 4.66667 10.3333H12.1667C12.6087 10.3333 13.0326 10.1577 13.3452 9.84516C13.6577 9.5326 13.8333 9.10867 13.8333 8.66665V3.66665C13.8333 3.22462 13.6577 2.8007 13.3452 2.48814C13.0326 2.17557 12.6087 1.99998 12.1667 1.99998H3.83333ZM1.47631 1.30962C2.10143 0.684503 2.94928 0.333313 3.83333 0.333313H12.1667C13.0507 0.333313 13.8986 0.684502 14.5237 1.30962C15.1488 1.93475 15.5 2.78259 15.5 3.66665V8.66665C15.5 9.5507 15.1488 10.3985 14.5237 11.0237C13.8986 11.6488 13.0507 12 12.1667 12H5.01184L1.92259 15.0892C1.68426 15.3276 1.32583 15.3989 1.01443 15.2699C0.703035 15.1409 0.5 14.837 0.5 14.5V3.66665C0.5 2.78259 0.85119 1.93474 1.47631 1.30962ZM3.83333 4.49998C3.83333 4.03974 4.20643 3.66665 4.66667 3.66665H11.3333C11.7936 3.66665 12.1667 4.03974 12.1667 4.49998C12.1667 4.96022 11.7936 5.33331 11.3333 5.33331H4.66667C4.20643 5.33331 3.83333 4.96022 3.83333 4.49998ZM3.83333 7.83331C3.83333 7.37308 4.20643 6.99998 4.66667 6.99998H9.66667C10.1269 6.99998 10.5 7.37308 10.5 7.83331C10.5 8.29355 10.1269 8.66665 9.66667 8.66665H4.66667C4.20643 8.66665 3.83333 8.29355 3.83333 7.83331Z" fill="#5C5F66"/>
</svg>
