<svg width="18" height="18" viewBox="0 0 18 18" fill="none" xmlns="http://www.w3.org/2000/svg">
<path d="M2.33329 15.25V1.91667H3.99996V7.75L6.08329 6.5L8.16663 7.75V1.91667H12.3333V7.81667C12.6083 7.775 12.8833 7.75 13.1666 7.75C13.45 7.75 13.725 7.775 14 7.81667V1.91667C14 1 13.25 0.25 12.3333 0.25H2.33329C1.41663 0.25 0.666626 1 0.666626 1.91667V15.25C0.666626 16.1667 1.41663 16.9167 2.33329 16.9167H8.38329C8.03329 16.4167 7.75829 15.85 7.57496 15.25H2.33329ZM13.1666 9.41667C10.8666 9.41667 8.99996 11.2833 8.99996 13.5833C8.99996 15.8833 10.8666 17.75 13.1666 17.75C15.4666 17.75 17.3333 15.8833 17.3333 13.5833C17.3333 11.2833 15.4666 9.41667 13.1666 9.41667ZM12.125 15.6667V11.5L15.4583 13.5833L12.125 15.6667Z" fill="#323D66"/>
</svg>
