<svg width="14" height="18" viewBox="0 0 14 18" fill="none" xmlns="http://www.w3.org/2000/svg">
<path d="M5.06668 9.99167L7.00001 8.525L8.92501 9.99167L8.19168 7.61667L10.125 6.08333H7.75834L7.00001 3.74167L6.24168 6.08333H3.87501L5.80001 7.61667L5.06668 9.99167ZM13.6667 6.91667C13.6667 3.23333 10.6833 0.25 7.00001 0.25C3.31668 0.25 0.333344 3.23333 0.333344 6.91667C0.333344 8.60833 0.966677 10.1417 2.00001 11.3167V17.75L7.00001 16.0833L12 17.75V11.3167C13.0333 10.1417 13.6667 8.60833 13.6667 6.91667ZM7.00001 1.91667C9.75834 1.91667 12 4.15833 12 6.91667C12 9.675 9.75834 11.9167 7.00001 11.9167C4.24168 11.9167 2.00001 9.675 2.00001 6.91667C2.00001 4.15833 4.24168 1.91667 7.00001 1.91667ZM7.00001 14.4167L3.66668 15.2667V12.6833C4.65001 13.25 5.78334 13.5833 7.00001 13.5833C8.21668 13.5833 9.35001 13.25 10.3333 12.6833V15.2667L7.00001 14.4167Z" fill="black"/>
</svg>
