<svg width="12" height="12" viewBox="0 0 12 12" fill="none" xmlns="http://www.w3.org/2000/svg">
<path fill-rule="evenodd" clip-rule="evenodd" d="M1.44603 0.704071C1.51693 0.679205 1.59152 0.666504 1.66666 0.666504H10.3333C10.4085 0.666504 10.4831 0.679205 10.554 0.704071C10.746 0.771416 10.92 0.88182 11.0628 1.02682C11.2056 1.17183 11.3133 1.34759 11.3776 1.54063C11.4419 1.73368 11.4613 1.93889 11.4341 2.14056C11.4068 2.34222 11.3338 2.53498 11.2206 2.70407C11.2023 2.73138 11.1821 2.7573 11.1599 2.78162L7.99999 6.25757V10.6665C7.99999 10.919 7.85732 11.1499 7.63146 11.2628C7.40561 11.3757 7.13533 11.3513 6.93332 11.1998L4.26666 9.19984C4.09879 9.07393 3.99999 8.87634 3.99999 8.6665V6.25758L0.84003 2.78162C0.817922 2.7573 0.797643 2.73138 0.779358 2.70407C0.666146 2.53498 0.593139 2.34222 0.565929 2.14056C0.538719 1.9389 0.558028 1.73368 0.622377 1.54063C0.686727 1.34758 0.794409 1.17183 0.937174 1.02682C1.07994 0.881819 1.254 0.771416 1.44603 0.704071ZM1.93127 1.99984L5.15995 5.55139C5.27151 5.6741 5.33332 5.83399 5.33332 5.99984V8.33317L6.66666 9.33317V5.99984C6.66666 5.83399 6.72847 5.6741 6.84003 5.55139L10.0687 1.99984H1.93127Z" fill="#141517"/>
</svg>
