<svg width="18" height="18" viewBox="0 0 18 18" fill="none" xmlns="http://www.w3.org/2000/svg">
<path fill-rule="evenodd" clip-rule="evenodd" d="M9.00008 2.33329C5.31818 2.33329 2.33341 5.31806 2.33341 8.99996C2.33341 12.6819 5.31818 15.6666 9.00008 15.6666C12.682 15.6666 15.6667 12.6819 15.6667 8.99996C15.6667 5.31806 12.682 2.33329 9.00008 2.33329ZM0.666748 8.99996C0.666748 4.39759 4.39771 0.666626 9.00008 0.666626C13.6025 0.666626 17.3334 4.39759 17.3334 8.99996C17.3334 13.6023 13.6025 17.3333 9.00008 17.3333C4.39771 17.3333 0.666748 13.6023 0.666748 8.99996ZM8.52226 5.71509C9.07198 5.6051 9.64273 5.68435 10.1417 5.93994L10.1447 5.94148L10.1447 5.94148C10.6421 6.19885 11.0389 6.61566 11.2714 7.12521C11.5039 7.63475 11.5588 8.20757 11.4272 8.75199C11.2957 9.29641 10.9853 9.78096 10.5457 10.1281C10.1061 10.4752 9.56283 10.6648 9.00274 10.6666C8.54251 10.6681 8.16822 10.2962 8.16675 9.83595C8.16528 9.37572 8.53718 9.00143 8.99742 8.99996C9.18449 8.99937 9.36595 8.93603 9.51276 8.82009C9.65958 8.70415 9.76325 8.54232 9.8072 8.36048C9.85114 8.17864 9.83281 7.98732 9.75515 7.81713C9.67772 7.64745 9.54576 7.50856 9.3803 7.42254C9.21658 7.3391 9.02948 7.3133 8.84925 7.34936C8.66847 7.38553 8.50525 7.48181 8.38614 7.62253C8.08879 7.97381 7.56297 8.01753 7.21168 7.72018C6.8604 7.42283 6.81667 6.89701 7.11402 6.54573C7.47622 6.11783 7.97255 5.82508 8.52226 5.71509ZM9.00008 11.5C9.46032 11.5 9.83342 11.8731 9.83342 12.3333V12.3416C9.83342 12.8019 9.46032 13.175 9.00008 13.175C8.53984 13.175 8.16675 12.8019 8.16675 12.3416V12.3333C8.16675 11.8731 8.53984 11.5 9.00008 11.5Z" fill="#5C5F66"/>
</svg>
