<svg width="18" height="16" viewBox="0 0 18 16" fill="none" xmlns="http://www.w3.org/2000/svg">
<path d="M8.99984 4.3585L10.1998 7.19183L11.1998 7.27516L13.2582 7.45016L10.9332 9.46683L11.1582 10.4502L11.6248 12.4585L9.85817 11.3918L8.99984 10.8585L8.1415 11.3752L6.37484 12.4418L6.8415 10.4335L7.0665 9.45016L4.7415 7.4335L6.79984 7.2585L7.79984 7.17516L8.1915 6.25016L8.99984 4.3585ZM8.99984 0.0834961L6.65817 5.6085L0.666504 6.11683L5.2165 10.0585L3.84984 15.9168L8.99984 12.8085L14.1498 15.9168L12.7832 10.0585L17.3332 6.11683L11.3415 5.6085L8.99984 0.0834961Z" fill="#8E8E93"/>
</svg>
