<svg width="18" height="16" viewBox="0 0 18 16" fill="none" xmlns="http://www.w3.org/2000/svg">
<path d="M15.7917 3.83333H12.4583V2.16667L10.7917 0.5H7.45832L5.79166 2.16667V3.83333H2.45832C1.54166 3.83333 0.791656 4.58333 0.791656 5.5V9.66667C0.791656 10.2917 1.12499 10.8167 1.62499 11.1083V13.8333C1.62499 14.7583 2.36666 15.5 3.29166 15.5H14.9583C15.8833 15.5 16.625 14.7583 16.625 13.8333V11.1C17.1167 10.8083 17.4583 10.275 17.4583 9.66667V5.5C17.4583 4.58333 16.7083 3.83333 15.7917 3.83333ZM7.45832 2.16667H10.7917V3.83333H7.45832V2.16667ZM2.45832 5.5H15.7917V9.66667H11.625V7.16667H6.62499V9.66667H2.45832V5.5ZM9.95832 10.5H8.29166V8.83333H9.95832V10.5ZM14.9583 13.8333H3.29166V11.3333H6.62499V12.1667H11.625V11.3333H14.9583V13.8333Z" fill="#AEAEB2"/>
</svg>
