<svg width="18" height="10" viewBox="0 0 18 10" fill="none" xmlns="http://www.w3.org/2000/svg">
<path d="M13.1665 0.833496H9.83317V2.50016H13.1665C14.5415 2.50016 15.6665 3.62516 15.6665 5.00016C15.6665 6.37516 14.5415 7.50016 13.1665 7.50016H9.83317V9.16683H13.1665C15.4665 9.16683 17.3332 7.30016 17.3332 5.00016C17.3332 2.70016 15.4665 0.833496 13.1665 0.833496ZM8.1665 7.50016H4.83317C3.45817 7.50016 2.33317 6.37516 2.33317 5.00016C2.33317 3.62516 3.45817 2.50016 4.83317 2.50016H8.1665V0.833496H4.83317C2.53317 0.833496 0.666504 2.70016 0.666504 5.00016C0.666504 7.30016 2.53317 9.16683 4.83317 9.16683H8.1665V7.50016ZM5.6665 4.16683H12.3332V5.8335H5.6665V4.16683Z" fill="#8E8E93"/>
</svg>
