<svg width="20" height="14" viewBox="0 0 20 14" fill="none" xmlns="http://www.w3.org/2000/svg">
<path fill-rule="evenodd" clip-rule="evenodd" d="M10.0001 0C10.3344 0 10.6466 0.167101 10.8321 0.4453L14.2271 5.53776L18.3754 2.21913C18.7036 1.95657 19.1609 1.92726 19.5199 2.14577C19.879 2.36428 20.0631 2.78398 19.9806 3.19612L17.9806 13.1961C17.8871 13.6635 17.4767 14 17.0001 14H3.00005C2.52337 14 2.11296 13.6635 2.01947 13.1961L0.0194733 3.19612C-0.0629546 2.78398 0.121126 2.36428 0.480161 2.14577C0.839196 1.92726 1.29655 1.95657 1.62475 2.21913L5.77303 5.53776L9.168 0.4453C9.35347 0.167101 9.6657 0 10.0001 0ZM10.0001 2.80278L6.8321 7.5547C6.67663 7.78791 6.43043 7.94516 6.15347 7.98816C5.87651 8.03116 5.59422 7.95596 5.37536 7.78087L2.51902 5.49579L3.81986 12H16.1803L17.4811 5.49579L14.6247 7.78087C14.4059 7.95596 14.1236 8.03116 13.8466 7.98816C13.5697 7.94516 13.3235 7.78791 13.168 7.5547L10.0001 2.80278Z" fill="#FFA500"/>
</svg>
