<svg width="12" height="14" viewBox="0 0 12 14" fill="none" xmlns="http://www.w3.org/2000/svg">
<path d="M9.99984 4.66667H9.33317V3.33333C9.33317 1.49333 7.83984 0 5.99984 0C4.15984 0 2.6665 1.49333 2.6665 3.33333V4.66667H1.99984C1.2665 4.66667 0.666504 5.26667 0.666504 6V12.6667C0.666504 13.4 1.2665 14 1.99984 14H9.99984C10.7332 14 11.3332 13.4 11.3332 12.6667V6C11.3332 5.26667 10.7332 4.66667 9.99984 4.66667ZM3.99984 3.33333C3.99984 2.22667 4.89317 1.33333 5.99984 1.33333C7.1065 1.33333 7.99984 2.22667 7.99984 3.33333V4.66667H3.99984V3.33333ZM9.99984 12.6667H1.99984V6H9.99984V12.6667ZM5.99984 10.6667C6.73317 10.6667 7.33317 10.0667 7.33317 9.33333C7.33317 8.6 6.73317 8 5.99984 8C5.2665 8 4.6665 8.6 4.6665 9.33333C4.6665 10.0667 5.2665 10.6667 5.99984 10.6667Z" fill="#8E8E93"/>
</svg>
