<svg width="24" height="24" viewBox="0 0 24 24" fill="none" xmlns="http://www.w3.org/2000/svg">
<g clip-path="url(#clip0_3789_17097)">
<path d="M0 8.05C0 5.20255 0 3.77882 0.562933 2.69513C1.03731 1.78191 1.78191 1.03731 2.69513 0.562933C3.77882 0 5.20255 0 8.05 0H15.95C18.7975 0 20.2212 0 21.3049 0.562933C22.2181 1.03731 22.9627 1.78191 23.4371 2.69513C24 3.77882 24 5.20255 24 8.05V15.95C24 18.7975 24 20.2212 23.4371 21.3049C22.9627 22.2181 22.2181 22.9627 21.3049 23.4371C20.2212 24 18.7975 24 15.95 24H8.05C5.20255 24 3.77882 24 2.69513 23.4371C1.78191 22.9627 1.03731 22.2181 0.562933 21.3049C0 20.2212 0 18.7975 0 15.95V8.05Z" fill="white"/>
<path d="M13.2812 12C13.2812 15.1365 10.7558 17.6794 7.64049 17.6794C4.52519 17.6794 2 15.1373 2 12C2 8.86265 4.52538 6.3208 7.64049 6.3208C10.7556 6.3208 13.2812 8.86342 13.2812 12ZM19.4691 12C19.4691 14.9527 18.2063 17.3461 16.6487 17.3461C15.0912 17.3461 13.8284 14.9519 13.8284 12C13.8284 9.04806 15.0912 6.65388 16.6487 6.65388C18.2063 6.65388 19.4691 9.04806 19.4691 12ZM22 12C22 14.6455 21.5558 16.7899 21.008 16.7899C20.4603 16.7899 20.0161 14.6447 20.0161 12C20.0161 9.35528 20.4603 7.21009 21.0082 7.21009C21.5562 7.21009 22 9.3547 22 12Z" fill="black"/>
</g>
<defs>
<clipPath id="clip0_3789_17097">
<rect width="24" height="24" fill="white"/>
</clipPath>
</defs>
</svg>
