<svg width="84" height="84" viewBox="0 0 84 84" fill="none" xmlns="http://www.w3.org/2000/svg">
<path d="M37.8333 21.1666H46.1666V29.4999H37.8333V21.1666ZM37.8333 37.8333H46.1666V62.8333H37.8333V37.8333ZM42 0.333252C19 0.333252 0.333313 18.9999 0.333313 41.9999C0.333313 64.9999 19 83.6666 42 83.6666C65 83.6666 83.6667 64.9999 83.6667 41.9999C83.6667 18.9999 65 0.333252 42 0.333252ZM42 75.3333C23.625 75.3333 8.66665 60.3749 8.66665 41.9999C8.66665 23.6249 23.625 8.66659 42 8.66659C60.375 8.66659 75.3333 23.6249 75.3333 41.9999C75.3333 60.3749 60.375 75.3333 42 75.3333Z" fill="#007AFF"/>
</svg>
