<svg width="21" height="19" viewBox="0 0 21 19" fill="none" xmlns="http://www.w3.org/2000/svg">
<path fill-rule="evenodd" clip-rule="evenodd" d="M16.3336 1C16.3336 0.447716 15.8859 3.88832e-07 15.3336 4.37114e-07L5.33362 1.31134e-06C4.78133 1.35962e-06 4.33362 0.447717 4.33362 1L4.33362 3.17071C4.02084 3.06016 3.68425 3 3.33362 3C1.67676 3 0.333617 4.34315 0.333617 6C0.333617 7.65686 1.67676 9 3.33362 9C3.68425 9 4.02084 8.93985 4.33362 8.8293L4.33362 9C4.33362 10.5913 4.96576 12.1174 6.09098 13.2426C6.97767 14.1293 8.11331 14.7098 9.33362 14.9161L9.33362 17L6.33362 17C5.78133 17 5.33362 17.4477 5.33362 18C5.33362 18.5523 5.78133 19 6.33362 19L14.3336 19C14.8859 19 15.3336 18.5523 15.3336 18C15.3336 17.4477 14.8859 17 14.3336 17L11.3336 17L11.3336 14.9161C12.5539 14.7098 13.6896 14.1293 14.5763 13.2426C15.7015 12.1174 16.3336 10.5913 16.3336 9L16.3336 8.8293C16.6464 8.93985 16.983 9 17.3336 9C18.9905 9 20.3336 7.65686 20.3336 6C20.3336 4.34315 18.9905 3 17.3336 3C16.983 3 16.6464 3.06015 16.3336 3.17071L16.3336 1ZM14.3336 9C14.3336 10.0609 13.9122 11.0783 13.162 11.8284C12.4119 12.5786 11.3945 13 10.3336 13C9.27275 13 8.25534 12.5786 7.50519 11.8284C6.75504 11.0783 6.33362 10.0609 6.33362 9L6.33362 2L14.3336 2L14.3336 9ZM16.3336 6C16.3336 5.44772 16.7813 5 17.3336 5C17.8859 5 18.3336 5.44772 18.3336 6C18.3336 6.55229 17.8859 7 17.3336 7C16.7813 7 16.3336 6.55229 16.3336 6ZM4.33362 6C4.33362 6.55229 3.8859 7 3.33362 7C2.78133 7 2.33362 6.55229 2.33362 6C2.33362 5.44772 2.78133 5 3.33362 5C3.8859 5 4.33362 5.44772 4.33362 6Z" fill="#F2994A"/>
</svg>
