<svg width="14" height="11" viewBox="0 0 14 11" fill="none" xmlns="http://www.w3.org/2000/svg">
<path d="M9.72402 6.15884C10.5232 6.70134 11.0832 7.43634 11.0832 8.41634V10.1663H13.4165V8.41634C13.4165 7.14467 11.334 6.39217 9.72402 6.15884Z" fill="#8E8E93"/>
<path d="M8.74986 5.49967C10.039 5.49967 11.0832 4.45551 11.0832 3.16634C11.0832 1.87717 10.039 0.833008 8.74986 0.833008C8.47569 0.833008 8.21902 0.891341 7.97402 0.973008C8.45819 1.57384 8.74986 2.33801 8.74986 3.16634C8.74986 3.99467 8.45819 4.75884 7.97402 5.35967C8.21902 5.44134 8.47569 5.49967 8.74986 5.49967Z" fill="#8E8E93"/>
<path d="M5.24986 5.49967C6.53902 5.49967 7.58319 4.45551 7.58319 3.16634C7.58319 1.87717 6.53902 0.833008 5.24986 0.833008C3.96069 0.833008 2.91652 1.87717 2.91652 3.16634C2.91652 4.45551 3.96069 5.49967 5.24986 5.49967ZM5.24986 1.99967C5.89152 1.99967 6.41652 2.52467 6.41652 3.16634C6.41652 3.80801 5.89152 4.33301 5.24986 4.33301C4.60819 4.33301 4.08319 3.80801 4.08319 3.16634C4.08319 2.52467 4.60819 1.99967 5.24986 1.99967Z" fill="#8E8E93"/>
<path d="M5.24986 6.08301C3.69236 6.08301 0.583191 6.86467 0.583191 8.41634V10.1663H9.91652V8.41634C9.91652 6.86467 6.80736 6.08301 5.24986 6.08301ZM8.74986 8.99967H1.74986V8.42217C1.86652 8.00217 3.67486 7.24967 5.24986 7.24967C6.82486 7.24967 8.63319 8.00217 8.74986 8.41634V8.99967Z" fill="#8E8E93"/>
</svg>
