<svg width="14" height="14" viewBox="0 0 14 14" fill="none" xmlns="http://www.w3.org/2000/svg">
<path d="M6.33333 3.66634H7.66666V4.99967H6.33333V3.66634ZM6.33333 6.33301H7.66666V10.333H6.33333V6.33301ZM7 0.333008C3.32 0.333008 0.333328 3.31967 0.333328 6.99967C0.333328 10.6797 3.32 13.6663 7 13.6663C10.68 13.6663 13.6667 10.6797 13.6667 6.99967C13.6667 3.31967 10.68 0.333008 7 0.333008ZM7 12.333C4.06 12.333 1.66666 9.93967 1.66666 6.99967C1.66666 4.05967 4.06 1.66634 7 1.66634C9.94 1.66634 12.3333 4.05967 12.3333 6.99967C12.3333 9.93967 9.94 12.333 7 12.333Z" fill="#323D66"/>
</svg>
