<svg width="20" height="20" viewBox="0 0 20 20" fill="none" xmlns="http://www.w3.org/2000/svg">
<path fill-rule="evenodd" clip-rule="evenodd" d="M9.99982 2C5.58154 2 1.99982 5.58172 1.99982 10C1.99982 14.4183 5.58154 18 9.99982 18C14.4181 18 17.9998 14.4183 17.9998 10C17.9998 5.58172 14.4181 2 9.99982 2ZM-0.000183105 10C-0.000183105 4.47715 4.47697 0 9.99982 0C15.5227 0 19.9998 4.47715 19.9998 10C19.9998 15.5229 15.5227 20 9.99982 20C4.47697 20 -0.000183105 15.5229 -0.000183105 10ZM9.42643 6.05816C10.0861 5.92617 10.771 6.02127 11.3697 6.32798L11.3733 6.32982L11.3733 6.32983C11.9703 6.63867 12.4464 7.13884 12.7254 7.7503C13.0044 8.36175 13.0703 9.04914 12.9124 9.70244C12.7545 10.3557 12.382 10.9372 11.8546 11.3537C11.3271 11.7703 10.6751 11.9978 10.003 12C9.45073 12.0018 9.00159 11.5555 8.99982 11.0032C8.99806 10.4509 9.44434 10.0018 9.99662 10C10.2211 9.99929 10.4389 9.92329 10.615 9.78416C10.7912 9.64503 10.9156 9.45083 10.9684 9.23263C11.0211 9.01442 10.9991 8.78483 10.9059 8.58061C10.813 8.37699 10.6546 8.21032 10.4561 8.10709C10.2596 8.00696 10.0351 7.97601 9.81882 8.01929C9.60189 8.06269 9.40602 8.17822 9.26309 8.34708C8.90627 8.76862 8.27528 8.82109 7.85374 8.46427C7.4322 8.10745 7.37973 7.47646 7.73655 7.05492C8.17119 6.54145 8.76678 6.19014 9.42643 6.05816ZM9.99982 13C10.5521 13 10.9998 13.4477 10.9998 14V14.01C10.9998 14.5623 10.5521 15.01 9.99982 15.01C9.44753 15.01 8.99982 14.5623 8.99982 14.01V14C8.99982 13.4477 9.44753 13 9.99982 13Z" fill="black"/>
</svg>
