<svg width="21" height="18" viewBox="0 0 21 18" fill="none" xmlns="http://www.w3.org/2000/svg">
<path d="M18.3334 4H14.3334V2L12.3334 0H8.33337L6.33337 2V4H2.33337C1.23337 4 0.333374 4.9 0.333374 6V11C0.333374 11.75 0.733374 12.38 1.33337 12.73V16C1.33337 17.11 2.22337 18 3.33337 18H17.3334C18.4434 18 19.3334 17.11 19.3334 16V12.72C19.9234 12.37 20.3334 11.73 20.3334 11V6C20.3334 4.9 19.4334 4 18.3334 4ZM8.33337 2H12.3334V4H8.33337V2ZM2.33337 6H18.3334V11H13.3334V8H7.33337V11H2.33337V6ZM11.3334 12H9.33337V10H11.3334V12ZM17.3334 16H3.33337V13H7.33337V14H13.3334V13H17.3334V16Z" fill="#4C6EF5"/>
</svg>
