<svg width="20" height="20" viewBox="0 0 20 20" fill="none" xmlns="http://www.w3.org/2000/svg">
<path fill-rule="evenodd" clip-rule="evenodd" d="M9.99975 2C5.58147 2 1.99974 5.58172 1.99974 10C1.99974 14.4183 5.58147 18 9.99975 18C14.418 18 17.9997 14.4183 17.9997 10C17.9997 5.58172 14.418 2 9.99975 2ZM-0.000255585 10C-0.000255585 4.47715 4.4769 0 9.99975 0C15.5226 0 19.9997 4.47715 19.9997 10C19.9997 15.5229 15.5226 20 9.99975 20C4.4769 20 -0.000255585 15.5229 -0.000255585 10ZM8.99975 6C8.99975 5.44772 9.44746 5 9.99975 5H10.0097C10.562 5 11.0097 5.44772 11.0097 6C11.0097 6.55229 10.562 7 10.0097 7H9.99975C9.44746 7 8.99975 6.55229 8.99975 6ZM7.99975 10C7.99975 9.44772 8.44746 9 8.99975 9H9.99975C10.552 9 10.9997 9.44772 10.9997 10V13C11.552 13 11.9997 13.4477 11.9997 14C11.9997 14.5523 11.552 15 10.9997 15H9.99975C9.44746 15 8.99975 14.5523 8.99975 14V11C8.44746 11 7.99975 10.5523 7.99975 10Z" fill="#FD7E14"/>
</svg>
