<svg width="19" height="18" viewBox="0 0 19 18" fill="none" xmlns="http://www.w3.org/2000/svg">
<path fill-rule="evenodd" clip-rule="evenodd" d="M3.66669 2C3.40147 2 3.14712 2.10536 2.95958 2.29289C2.77204 2.48043 2.66669 2.73478 2.66669 3V15C2.66669 15.2652 2.77204 15.5196 2.95958 15.7071C3.14712 15.8946 3.40147 16 3.66669 16H15.6667C15.9319 16 16.1863 15.8946 16.3738 15.7071C16.5613 15.5196 16.6667 15.2652 16.6667 15V9C16.6667 8.44772 17.1144 8 17.6667 8C18.219 8 18.6667 8.44772 18.6667 9V15C18.6667 15.7957 18.3506 16.5587 17.788 17.1213C17.2254 17.6839 16.4623 18 15.6667 18H3.66669C2.87104 18 2.10798 17.6839 1.54537 17.1213C0.982758 16.5587 0.666687 15.7956 0.666687 15V3C0.666687 2.20435 0.982757 1.44129 1.54537 0.87868C2.10798 0.31607 2.87104 0 3.66669 0H12.6667C13.219 0 13.6667 0.447715 13.6667 1C13.6667 1.55228 13.219 2 12.6667 2H3.66669ZM16.9596 2.29289C17.3501 1.90237 17.9833 1.90237 18.3738 2.29289C18.7643 2.68342 18.7643 3.31658 18.3738 3.70711L10.3738 11.7071C9.98327 12.0976 9.3501 12.0976 8.95958 11.7071L5.95958 8.70711C5.56906 8.31658 5.56906 7.68342 5.95958 7.29289C6.3501 6.90237 6.98327 6.90237 7.37379 7.29289L9.66669 9.58579L16.9596 2.29289Z" fill="#02BC02"/>
</svg>
