<svg width="16" height="17" viewBox="0 0 16 17" fill="none" xmlns="http://www.w3.org/2000/svg">
<path fill-rule="evenodd" clip-rule="evenodd" d="M7.75243 3.21467C7.91137 3.1511 8.08867 3.1511 8.24761 3.21467L14.9143 5.88134C15.1674 5.98258 15.3334 6.22772 15.3334 6.50033V10.5003C15.3334 10.8685 15.0349 11.167 14.6667 11.167C14.2985 11.167 14 10.8685 14 10.5003V7.48501L12.6667 8.01835V11.167C12.6667 12.0778 11.9593 12.7611 11.1266 13.1775C10.2626 13.6095 9.1377 13.8337 8.00002 13.8337C6.86234 13.8337 5.7374 13.6095 4.87345 13.1775C4.04069 12.7611 3.33335 12.0778 3.33335 11.167V8.01835L1.08576 7.11931C0.832654 7.01807 0.666687 6.77293 0.666687 6.50033C0.666687 6.22772 0.832654 5.98258 1.08576 5.88134L7.75243 3.21467ZM4.26169 6.95364C4.25229 6.94962 4.24277 6.94582 4.23316 6.94222L3.12841 6.50033L8.00002 4.55168L12.8716 6.50033L11.7669 6.94222C11.7573 6.94582 11.7478 6.94962 11.7384 6.95364L8.00002 8.44897L4.26169 6.95364ZM4.66669 8.55168V11.167C4.66669 11.317 4.8022 11.6512 5.46974 11.9849C6.10608 12.3031 7.01597 12.5003 8.00002 12.5003C8.98407 12.5003 9.89396 12.3031 10.5303 11.9849C11.1978 11.6512 11.3334 11.317 11.3334 11.167V8.55168L8.24761 9.78598C8.08867 9.84955 7.91137 9.84955 7.75243 9.78598L4.66669 8.55168Z" fill="#141517"/>
</svg>
