<svg width="14" height="14" viewBox="0 0 14 14" fill="none" xmlns="http://www.w3.org/2000/svg">
<path fill-rule="evenodd" clip-rule="evenodd" d="M5.66634 1.66683C3.4572 1.66683 1.66634 3.45769 1.66634 5.66683C1.66634 7.87597 3.4572 9.66683 5.66634 9.66683C7.87548 9.66683 9.66634 7.87597 9.66634 5.66683C9.66634 3.45769 7.87548 1.66683 5.66634 1.66683ZM0.333008 5.66683C0.333008 2.72131 2.72082 0.333496 5.66634 0.333496C8.61186 0.333496 10.9997 2.72131 10.9997 5.66683C10.9997 6.8993 10.5816 8.03414 9.87958 8.93726L13.4711 12.5288C13.7314 12.7891 13.7314 13.2112 13.4711 13.4716C13.2107 13.7319 12.7886 13.7319 12.5283 13.4716L8.93677 9.88007C8.03365 10.5821 6.89882 11.0002 5.66634 11.0002C2.72082 11.0002 0.333008 8.61235 0.333008 5.66683Z" fill="#ADB5BD"/>
</svg>
