<svg width="13" height="15" viewBox="0 0 13 15" fill="none" xmlns="http://www.w3.org/2000/svg">
<path fill-rule="evenodd" clip-rule="evenodd" d="M3.66661 1.66659C3.4898 1.66659 3.32023 1.73682 3.19521 1.86185C3.07018 1.98687 2.99995 2.15644 2.99995 2.33325V4.33325C2.99995 4.70144 2.70147 4.99992 2.33328 4.99992C1.96509 4.99992 1.66661 4.70144 1.66661 4.33325V2.33325C1.66661 1.80282 1.87733 1.29411 2.2524 0.919038C2.62747 0.543966 3.13618 0.333252 3.66661 0.333252H8.33328C8.51009 0.333252 8.67966 0.40349 8.80468 0.528514L12.138 3.86185C12.263 3.98687 12.3333 4.15644 12.3333 4.33325V11.6666C12.3333 12.197 12.1226 12.7057 11.7475 13.0808C11.3724 13.4559 10.8637 13.6666 10.3333 13.6666H6.99995C6.63176 13.6666 6.33328 13.3681 6.33328 12.9999C6.33328 12.6317 6.63176 12.3333 6.99995 12.3333H10.3333C10.5101 12.3333 10.6797 12.263 10.8047 12.138C10.9297 12.013 10.9999 11.8434 10.9999 11.6666V4.99992H8.99995C8.64632 4.99992 8.30719 4.85944 8.05714 4.60939C7.80709 4.35935 7.66661 4.02021 7.66661 3.66659V1.66659H3.66661ZM8.99995 2.60939L10.0571 3.66659H8.99995V2.60939ZM2.99995 6.99992C2.26357 6.99992 1.66661 7.59687 1.66661 8.33325C1.66661 9.06963 2.26357 9.66659 2.99995 9.66659C3.73633 9.66659 4.33328 9.06963 4.33328 8.33325C4.33328 7.59687 3.73633 6.99992 2.99995 6.99992ZM0.33328 8.33325C0.33328 6.86049 1.52719 5.66659 2.99995 5.66659C4.47271 5.66659 5.66661 6.86049 5.66661 8.33325C5.66661 9.15529 5.29466 9.89045 4.70988 10.3796L5.6385 13.475C5.71492 13.7298 5.63261 14.0056 5.42907 14.1768C5.22553 14.348 4.9397 14.3818 4.7018 14.2629L2.99995 13.4119L1.29809 14.2629C1.0602 14.3818 0.774369 14.348 0.570824 14.1768C0.36728 14.0056 0.28497 13.7298 0.361396 13.475L1.29002 10.3796C0.705233 9.89045 0.33328 9.15529 0.33328 8.33325ZM2.50947 10.9549L2.08186 12.3803L2.7018 12.0703C2.88949 11.9765 3.1104 11.9765 3.29809 12.0703L3.91803 12.3803L3.49042 10.9549C3.33144 10.9845 3.1675 10.9999 2.99995 10.9999C2.8324 10.9999 2.66846 10.9845 2.50947 10.9549Z" fill="black"/>
</svg>
