<svg width="13" height="15" viewBox="0 0 13 15" fill="none" xmlns="http://www.w3.org/2000/svg">
<path fill-rule="evenodd" clip-rule="evenodd" d="M3.66666 1.66683C3.48985 1.66683 3.32028 1.73707 3.19525 1.86209C3.07023 1.98712 2.99999 2.15668 2.99999 2.3335V4.3335C2.99999 4.70169 2.70152 5.00016 2.33333 5.00016C1.96514 5.00016 1.66666 4.70169 1.66666 4.3335V2.3335C1.66666 1.80306 1.87737 1.29436 2.25245 0.919282C2.62752 0.54421 3.13623 0.333496 3.66666 0.333496H8.33333C8.51014 0.333496 8.67971 0.403734 8.80473 0.528758L12.1381 3.86209C12.2631 3.98712 12.3333 4.15669 12.3333 4.3335V11.6668C12.3333 12.1973 12.1226 12.706 11.7475 13.081C11.3725 13.4561 10.8638 13.6668 10.3333 13.6668H6.99999C6.6318 13.6668 6.33333 13.3684 6.33333 13.0002C6.33333 12.632 6.6318 12.3335 6.99999 12.3335H10.3333C10.5101 12.3335 10.6797 12.2633 10.8047 12.1382C10.9298 12.0132 11 11.8436 11 11.6668V5.00016H8.99999C8.64637 5.00016 8.30723 4.85969 8.05718 4.60964C7.80714 4.35959 7.66666 4.02045 7.66666 3.66683V1.66683H3.66666ZM8.99999 2.60964L10.0572 3.66683H8.99999V2.60964ZM2.99999 7.00016C2.26361 7.00016 1.66666 7.59712 1.66666 8.3335C1.66666 9.06988 2.26361 9.66683 2.99999 9.66683C3.73637 9.66683 4.33333 9.06988 4.33333 8.3335C4.33333 7.59712 3.73637 7.00016 2.99999 7.00016ZM0.333326 8.3335C0.333326 6.86074 1.52723 5.66683 2.99999 5.66683C4.47275 5.66683 5.66666 6.86074 5.66666 8.3335C5.66666 9.15553 5.29471 9.89069 4.70992 10.3799L5.63854 13.4753C5.71497 13.73 5.63266 14.0058 5.42912 14.177C5.22557 14.3482 4.93974 14.3821 4.70185 14.2631L2.99999 13.4122L1.29814 14.2631C1.06024 14.3821 0.774414 14.3482 0.57087 14.177C0.367326 14.0058 0.285016 13.73 0.361442 13.4753L1.29006 10.3799C0.705278 9.89069 0.333326 9.15553 0.333326 8.3335ZM2.50952 10.9552L2.08191 12.3805L2.70185 12.0705C2.88954 11.9767 3.11045 11.9767 3.29814 12.0705L3.91808 12.3805L3.49047 10.9552C3.33148 10.9847 3.16754 11.0002 2.99999 11.0002C2.83244 11.0002 2.6685 10.9847 2.50952 10.9552Z" fill="black"/>
</svg>
