<svg width="16" height="14" viewBox="0 0 16 14" fill="none" xmlns="http://www.w3.org/2000/svg">
<path d="M14.6667 7.00033H10.6667L9.33337 9.00033H6.66671L5.33337 7.00033H1.33337M14.6667 7.00033V11.0003C14.6667 11.3539 14.5262 11.6931 14.2762 11.9431C14.0261 12.1932 13.687 12.3337 13.3334 12.3337H2.66671C2.31309 12.3337 1.97395 12.1932 1.7239 11.9431C1.47385 11.6931 1.33337 11.3539 1.33337 11.0003V7.00033M14.6667 7.00033L12.3667 2.40699C12.2563 2.18485 12.0862 1.99791 11.8753 1.86718C11.6645 1.73645 11.4214 1.66712 11.1734 1.66699H4.82671C4.57865 1.66712 4.33555 1.73645 4.12474 1.86718C3.91392 1.99791 3.74376 2.18485 3.63337 2.40699L1.33337 7.00033" stroke="#5C5F66" stroke-width="1.5" stroke-linecap="round" stroke-linejoin="round"/>
</svg>
