<svg width="12" height="14" viewBox="0 0 12 14" fill="none" xmlns="http://www.w3.org/2000/svg">
<path d="M4.45329 7.79333L5.99996 6.62L7.53996 7.79333L6.95329 5.89333L8.49996 4.66667H6.60663L5.99996 2.79333L5.39329 4.66667H3.49996L5.03996 5.89333L4.45329 7.79333ZM11.3333 5.33333C11.3333 2.38667 8.94663 0 5.99996 0C3.05329 0 0.666626 2.38667 0.666626 5.33333C0.666626 6.68667 1.17329 7.91333 1.99996 8.85333L1.99996 14L5.99996 12.6667L9.99996 14V8.85333C10.8266 7.91333 11.3333 6.68667 11.3333 5.33333ZM5.99996 1.33333C8.20663 1.33333 9.99996 3.12667 9.99996 5.33333C9.99996 7.54 8.20663 9.33333 5.99996 9.33333C3.79329 9.33333 1.99996 7.54 1.99996 5.33333C1.99996 3.12667 3.79329 1.33333 5.99996 1.33333ZM5.99996 11.3333L3.33329 12.0133V9.94667C4.11996 10.4 5.02663 10.6667 5.99996 10.6667C6.97329 10.6667 7.87996 10.4 8.66663 9.94667V12.0133L5.99996 11.3333Z" fill="#5C5F66"/>
</svg>
