<svg width="14" height="8" viewBox="0 0 14 8" fill="none" xmlns="http://www.w3.org/2000/svg">
<path d="M10.3334 0.666992H7.66671V2.00033H10.3334C11.4334 2.00033 12.3334 2.90033 12.3334 4.00033C12.3334 5.10033 11.4334 6.00033 10.3334 6.00033H7.66671V7.33366H10.3334C12.1734 7.33366 13.6667 5.84033 13.6667 4.00033C13.6667 2.16033 12.1734 0.666992 10.3334 0.666992ZM6.33337 6.00033H3.66671C2.56671 6.00033 1.66671 5.10033 1.66671 4.00033C1.66671 2.90033 2.56671 2.00033 3.66671 2.00033H6.33337V0.666992H3.66671C1.82671 0.666992 0.333374 2.16033 0.333374 4.00033C0.333374 5.84033 1.82671 7.33366 3.66671 7.33366H6.33337V6.00033ZM4.33337 3.33366H9.66671V4.66699H4.33337V3.33366Z" fill="#5C5F66"/>
</svg>
