<svg width="10" height="10" viewBox="0 0 10 10" fill="none" xmlns="http://www.w3.org/2000/svg">
<path fill-rule="evenodd" clip-rule="evenodd" d="M2 1.5C1.86739 1.5 1.74021 1.55268 1.64645 1.64645C1.55268 1.74021 1.5 1.86739 1.5 2V8C1.5 8.13261 1.55268 8.25979 1.64645 8.35355C1.74021 8.44732 1.86739 8.5 2 8.5H8C8.13261 8.5 8.25978 8.44732 8.35355 8.35355C8.44732 8.25978 8.5 8.13261 8.5 8V5C8.5 4.72386 8.72386 4.5 9 4.5C9.27614 4.5 9.5 4.72386 9.5 5V8C9.5 8.39783 9.34196 8.77936 9.06066 9.06066C8.77936 9.34196 8.39783 9.5 8 9.5H2C1.60217 9.5 1.22064 9.34196 0.93934 9.06066C0.658035 8.77936 0.5 8.39782 0.5 8V2C0.5 1.60218 0.658035 1.22064 0.93934 0.93934C1.22064 0.658035 1.60218 0.5 2 0.5H6.5C6.77614 0.5 7 0.723858 7 1C7 1.27614 6.77614 1.5 6.5 1.5H2ZM8.64645 1.64645C8.84171 1.45118 9.15829 1.45118 9.35355 1.64645C9.54882 1.84171 9.54882 2.15829 9.35355 2.35355L5.35355 6.35355C5.15829 6.54882 4.84171 6.54882 4.64645 6.35355L3.14645 4.85355C2.95118 4.65829 2.95118 4.34171 3.14645 4.14645C3.34171 3.95118 3.65829 3.95118 3.85355 4.14645L5 5.29289L8.64645 1.64645Z" fill="#02BC02"/>
</svg>
