<svg width="16" height="18" viewBox="0 0 16 18" fill="none" xmlns="http://www.w3.org/2000/svg">
<path fill-rule="evenodd" clip-rule="evenodd" d="M7.99998 2.33335C7.77897 2.33335 7.56701 2.42115 7.41073 2.57743C7.25445 2.73371 7.16665 2.94567 7.16665 3.16669C7.16665 3.48893 6.98086 3.78229 6.68954 3.92004C5.86925 4.30792 5.16997 4.91171 4.66665 5.66669C4.16681 6.41645 3.87894 7.28727 3.83332 8.18699V10.6667C3.83332 10.7002 3.8313 10.7336 3.82728 10.7668C3.7604 11.3193 3.58365 11.8518 3.3085 12.3334H12.6915C12.4163 11.8518 12.2396 11.3193 12.1727 10.7668C12.1687 10.7336 12.1667 10.7002 12.1667 10.6667V8.18699C12.121 7.28727 11.8332 6.41646 11.3333 5.66669C10.83 4.91171 10.1307 4.30792 9.31042 3.92004C9.01911 3.78229 8.83332 3.48893 8.83332 3.16669C8.83332 2.94567 8.74552 2.73371 8.58924 2.57743C8.43296 2.42115 8.221 2.33335 7.99998 2.33335ZM9.66665 14H6.33332C6.33332 14.442 6.50891 14.866 6.82147 15.1785C7.13403 15.4911 7.55796 15.6667 7.99998 15.6667C8.44201 15.6667 8.86594 15.4911 9.1785 15.1785C9.49106 14.866 9.66665 14.442 9.66665 14ZM4.66665 14C4.66665 14.8841 5.01784 15.7319 5.64296 16.357C6.26808 16.9822 7.11593 17.3334 7.99998 17.3334C8.88404 17.3334 9.73189 16.9822 10.357 16.357C10.9821 15.7319 11.3333 14.8841 11.3333 14H14.6667C15.0451 14 15.3761 13.745 15.4725 13.379C15.5689 13.013 15.4066 12.628 15.0773 12.4415C14.7367 12.2487 14.4461 11.9785 14.229 11.6529C14.0206 11.3402 13.8854 10.9846 13.8333 10.6128V8.16669C13.8333 8.15366 13.833 8.14063 13.8324 8.12762C13.7757 6.91911 13.3912 5.74883 12.7201 4.74219C12.1364 3.86661 11.355 3.14355 10.4417 2.62979C10.3399 2.16718 10.1079 1.73908 9.76775 1.39892C9.29891 0.930079 8.66303 0.666687 7.99998 0.666687C7.33694 0.666687 6.70106 0.930079 6.23222 1.39892C5.89205 1.73908 5.66004 2.16718 5.55831 2.62979C4.64501 3.14355 3.86362 3.86661 3.2799 4.74219C2.60881 5.74883 2.22429 6.91911 2.16757 8.12762C2.16696 8.14063 2.16665 8.15366 2.16665 8.16669V10.6128C2.11459 10.9846 1.97941 11.3402 1.77093 11.6529C1.55382 11.9785 1.26328 12.2487 0.92269 12.4415C0.593362 12.628 0.43106 13.013 0.527487 13.379C0.623914 13.745 0.954853 14 1.33332 14H4.66665Z" fill="#5C5F66"/>
</svg>
