<svg width="84" height="84" viewBox="0 0 84 84" fill="none" xmlns="http://www.w3.org/2000/svg">
<path d="M83.6668 13.5835L36.1252 61.1668L18.4585 43.5002L24.3335 37.6252L36.1252 49.4168L77.7918 7.75016L83.6668 13.5835ZM74.4585 34.5835C75.0002 36.9585 75.3335 39.4585 75.3335 42.0002C75.3335 60.4168 60.4168 75.3335 42.0002 75.3335C23.5835 75.3335 8.66683 60.4168 8.66683 42.0002C8.66683 23.5835 23.5835 8.66683 42.0002 8.66683C48.5835 8.66683 54.6668 10.5835 59.8335 13.8752L65.8335 7.87516C59.0835 3.12516 50.8752 0.333496 42.0002 0.333496C19.0002 0.333496 0.333496 19.0002 0.333496 42.0002C0.333496 65.0002 19.0002 83.6668 42.0002 83.6668C65.0002 83.6668 83.6668 65.0002 83.6668 42.0002C83.6668 37.0418 82.7502 32.2918 81.1668 27.8752L74.4585 34.5835Z" fill="#34C759"/>
</svg>
