<svg width="19" height="16" viewBox="0 0 19 16" fill="none" xmlns="http://www.w3.org/2000/svg">
<path d="M17.9583 7.99967H12.9583L11.2917 10.4997H7.95834L6.29167 7.99967H1.29167M17.9583 7.99967V12.9997C17.9583 13.4417 17.7827 13.8656 17.4702 14.1782C17.1576 14.4907 16.7337 14.6663 16.2917 14.6663H2.95834C2.51631 14.6663 2.09239 14.4907 1.77983 14.1782C1.46727 13.8656 1.29167 13.4417 1.29167 12.9997V7.99967M17.9583 7.99967L15.0833 2.25801C14.9454 1.98033 14.7327 1.74665 14.4691 1.58324C14.2056 1.41983 13.9017 1.33317 13.5917 1.33301H5.65834C5.34827 1.33317 5.04439 1.41983 4.78088 1.58324C4.51736 1.74665 4.30465 1.98033 4.16667 2.25801L1.29167 7.99967" stroke="#AEAEB2" stroke-width="2" stroke-linecap="round" stroke-linejoin="round"/>
</svg>
