<svg width="16" height="14" viewBox="0 0 16 14" fill="none" xmlns="http://www.w3.org/2000/svg">
<path d="M14.6668 7.00008H10.6668L9.3335 9.00008H6.66683L5.3335 7.00008H1.3335M14.6668 7.00008V11.0001C14.6668 11.3537 14.5264 11.6928 14.2763 11.9429C14.0263 12.1929 13.6871 12.3334 13.3335 12.3334H2.66683C2.31321 12.3334 1.97407 12.1929 1.72402 11.9429C1.47397 11.6928 1.3335 11.3537 1.3335 11.0001V7.00008M14.6668 7.00008L12.3668 2.40675C12.2564 2.18461 12.0863 1.99766 11.8755 1.86693C11.6647 1.73621 11.4216 1.66688 11.1735 1.66675H4.82683C4.57877 1.66688 4.33567 1.73621 4.12486 1.86693C3.91405 1.99766 3.74388 2.18461 3.6335 2.40675L1.3335 7.00008" stroke="#323D66" stroke-width="1.5" stroke-linecap="round" stroke-linejoin="round"/>
</svg>
