<svg width="16" height="11" viewBox="0 0 16 11" fill="none" xmlns="http://www.w3.org/2000/svg">
<path fill-rule="evenodd" clip-rule="evenodd" d="M7.75237 0.214186C7.91131 0.15061 8.08861 0.15061 8.24755 0.214186L14.9142 2.88085C15.1673 2.9821 15.3333 3.22723 15.3333 3.49984V7.49984C15.3333 7.86803 15.0348 8.1665 14.6666 8.1665C14.2984 8.1665 14 7.86803 14 7.49984V4.48453L12.6666 5.01786V8.1665C12.6666 9.07733 11.9593 9.76062 11.1265 10.177C10.2626 10.609 9.13764 10.8332 7.99996 10.8332C6.86228 10.8332 5.73733 10.609 4.87339 10.177C4.04063 9.76062 3.33329 9.07733 3.33329 8.1665V5.01786L1.0857 4.11882C0.832593 4.01758 0.666626 3.77244 0.666626 3.49984C0.666626 3.22723 0.832593 2.9821 1.0857 2.88085L7.75237 0.214186ZM4.26163 3.95315C4.25223 3.94913 4.24271 3.94533 4.23309 3.94174L3.12835 3.49984L7.99996 1.55119L12.8716 3.49984L11.7668 3.94174C11.7572 3.94533 11.7477 3.94913 11.7383 3.95315L7.99996 5.44848L4.26163 3.95315ZM4.66663 5.55119V8.1665C4.66663 8.31654 4.80214 8.65066 5.46968 8.98443C6.10602 9.3026 7.01591 9.49984 7.99996 9.49984C8.98401 9.49984 9.8939 9.3026 10.5302 8.98443C11.1978 8.65066 11.3333 8.31654 11.3333 8.1665V5.55119L8.24755 6.78549C8.08861 6.84906 7.91131 6.84906 7.75237 6.78549L4.66663 5.55119Z" fill="#8E8E93"/>
</svg>
