<svg width="104" height="104" viewBox="0 0 104 104" fill="none" xmlns="http://www.w3.org/2000/svg">
<path d="M48.87 81.07C32.9036 80.3169 20.2009 67.1622 20.2009 50.9951C20.2009 34.376 33.707 20.8699 50.326 20.8699C66.4932 20.8699 79.6478 33.5727 80.4009 49.539L69.8571 46.3759C67.7986 37.489 59.8154 30.9116 50.326 30.9116C39.2299 30.9116 30.2426 39.899 30.2426 50.9951C30.2426 60.4845 36.8199 68.4677 45.7068 70.5262L48.87 81.07ZM100.535 50.9951C100.535 52.5013 100.484 54.0076 100.334 55.5138L90.4427 52.5515C90.4929 52.0495 90.4929 51.4972 90.4929 50.9951C90.4929 28.8029 72.5182 10.8282 50.326 10.8282C28.1338 10.8282 10.1591 28.8029 10.1591 50.9951C10.1591 73.1873 28.1338 91.1619 50.326 91.1619C50.8281 91.1619 51.3804 91.1619 51.8825 91.1117L54.8448 101.003C53.3385 101.153 51.8323 101.204 50.326 101.204C22.6109 101.204 0.117432 78.7102 0.117432 50.9951C0.117432 23.2799 22.6109 0.786499 50.326 0.786499C78.0411 0.786499 100.535 23.2799 100.535 50.9951ZM81.6059 72.3839L100.535 66.0576L50.326 50.9951L65.3886 101.204L71.7149 82.275L93.1539 103.714L103.095 93.7728L81.6059 72.3839Z" fill="#808080" fill-opacity="0.15"/>
</svg>
