<svg width="68" height="64" viewBox="0 0 68 64" fill="none" xmlns="http://www.w3.org/2000/svg">
<path fill-rule="evenodd" clip-rule="evenodd" d="M13.9993 3.33333C13.9993 1.49238 15.4917 0 17.3327 0H50.666C52.507 0 53.9994 1.49238 53.9994 3.33333V10.569C55.0419 10.2005 56.1639 10 57.3327 10C62.8555 10 67.3327 14.4772 67.3327 20C67.3327 25.5229 62.8555 30 57.3327 30C56.1639 30 55.0419 29.7995 53.9994 29.431V30C53.9994 35.3043 51.8922 40.3914 48.1415 44.1421C45.1858 47.0978 41.4004 49.0328 37.3327 49.7204V56.6667H47.3327C49.1736 56.6667 50.666 58.1591 50.666 60C50.666 61.841 49.1736 63.3333 47.3327 63.3333H20.666C18.8251 63.3333 17.3327 61.841 17.3327 60C17.3327 58.1591 18.8251 56.6667 20.666 56.6667H30.666V49.7204C26.5983 49.0328 22.8129 47.0978 19.8572 44.1421C16.1065 40.3914 13.9993 35.3043 13.9993 30V29.431C12.9568 29.7995 11.8348 30 10.666 30C5.14317 30 0.666016 25.5229 0.666016 20C0.666016 14.4772 5.14317 10 10.666 10C11.8348 10 12.9568 10.2005 13.9993 10.569V3.33333ZM20.666 30C20.666 33.5362 22.0708 36.9276 24.5713 39.4281C27.0717 41.9286 30.4631 43.3333 33.9994 43.3333C37.5356 43.3333 40.927 41.9286 43.4274 39.4281C45.9279 36.9276 47.3327 33.5362 47.3327 30V6.66667H20.666V30ZM13.9993 20C13.9993 18.1591 12.507 16.6667 10.666 16.6667C8.82507 16.6667 7.33268 18.1591 7.33268 20C7.33268 21.841 8.82507 23.3333 10.666 23.3333C12.507 23.3333 13.9993 21.841 13.9993 20ZM53.9994 20C53.9994 21.841 55.4917 23.3333 57.3327 23.3333C59.1736 23.3333 60.666 21.841 60.666 20C60.666 18.1591 59.1736 16.6667 57.3327 16.6667C55.4917 16.6667 53.9994 18.1591 53.9994 20Z" fill="white"/>
</svg>
